<?xml version="1.0" standalone="no"?>
<!DOCTYPE svg PUBLIC "-//W3C//DTD SVG 20010904//EN"
 "http://www.w3.org/TR/2001/REC-SVG-20010904/DTD/svg10.dtd">
<svg version="1.0" xmlns="http://www.w3.org/2000/svg"
 width="703.000000pt" height="703.000000pt" viewBox="0 0 703.000000 703.000000"
 preserveAspectRatio="xMidYMid meet">
<metadata>
Created by potrace 1.14, written by Peter Selinger 2001-2017
</metadata>
<g transform="translate(0.000000,703.000000) scale(0.100000,-0.100000)"
fill="#000000" stroke="none">
<path d="M3328 7026 c-1 -2 -46 -6 -98 -10 -755 -53 -1535 -393 -2092 -913
-299 -279 -533 -581 -717 -923 -60 -111 -141 -286 -176 -380 -10 -25 -23 -58
-30 -75 -13 -31 -73 -219 -99 -315 -9 -30 -27 -111 -40 -180 -34 -170 -36
-179 -41 -230 -3 -25 -7 -54 -10 -65 -27 -130 -27 -623 1 -850 5 -45 40 -247
49 -285 3 -14 10 -49 16 -79 6 -29 15 -65 20 -78 5 -13 11 -37 14 -52 10 -57
104 -328 157 -451 354 -831 1029 -1509 1843 -1851 66 -28 129 -55 140 -59 87
-39 497 -153 625 -174 98 -16 264 -38 335 -43 173 -14 546 -7 695 12 14 1 48
6 75 9 442 57 918 225 1330 470 501 299 935 739 1234 1254 87 150 266 543 277
608 1 7 11 38 22 70 19 54 42 132 48 161 1 6 7 27 13 45 34 106 81 383 98 583
15 161 7 588 -12 707 -2 13 -6 43 -9 68 -3 25 -8 56 -11 70 -3 14 -7 41 -11
60 -57 354 -224 816 -403 1118 -17 29 -31 55 -31 58 0 3 -9 17 -19 32 -10 15
-44 65 -74 112 -224 346 -590 724 -912 940 -27 19 -52 36 -55 39 -6 7 -144 92
-225 139 -65 37 -246 129 -307 156 -21 9 -53 22 -70 30 -143 63 -412 149 -581
187 -162 36 -229 47 -387 64 -36 4 -76 9 -90 11 -31 5 -487 14 -492 10z"/>
</g>
</svg>
